<svg width="180" height="18" viewBox="0 0 180 18" fill="none" xmlns="http://www.w3.org/2000/svg">
<path d="M5.33011 0.00149254C4.52735 0.0134317 3.72459 0.126855 2.92182 0.341763C1.12741 0.819335 0.17708 2.05505 0.0708321 4.04892C0.0236107 4.87273 0 5.70848 0 6.55617C0 8.84852 0.165275 11.2006 0.495825 13.6123C0.755542 15.4868 1.49338 16.7404 2.70933 17.3732C3.14612 17.6 3.79542 17.7791 4.65721 17.9105C5.0704 17.9702 5.49539 18 5.93219 18C7.08911 18 8.31686 17.7791 9.61545 17.3374C10.7488 16.9553 11.4689 16.227 11.7758 15.1525C11.8939 14.7346 11.947 14.0958 11.9352 13.2362C11.8998 11.517 11.2328 10.2633 9.9342 9.47533C9.33213 9.11715 8.05715 8.78285 6.10927 8.47243C8.25784 8.23365 9.66268 7.60683 10.3238 6.59199C10.8668 5.75624 11.1383 4.90258 11.1383 4.03101C11.1383 3.86386 11.1206 3.66089 11.0852 3.4221C10.8137 1.58345 9.69219 0.502943 7.7207 0.180582C6.92974 0.0492492 6.13288 -0.0104473 5.33011 0.00149254ZM3.04578 4.29964C3.01036 3.23704 3.61244 2.68784 4.852 2.65202C6.11517 2.6162 6.78807 3.04602 6.87071 3.94146C6.96515 4.84885 6.35128 5.40403 5.02908 5.607C4.80478 5.64282 4.62179 5.66072 4.48013 5.66072C3.55931 5.66072 3.0812 5.20703 3.04578 4.29964ZM4.30305 11.6602C4.66901 11.505 5.02908 11.4274 5.38324 11.4274C5.66657 11.4274 5.94989 11.4692 6.23322 11.5528C7.30751 11.8751 7.84465 12.4064 7.84465 13.1467C7.84465 13.3138 7.81514 13.4929 7.75611 13.6839C7.54362 14.3764 6.92384 14.7227 5.89677 14.7227C5.47178 14.7227 5.02908 14.6451 4.56867 14.4898C3.78952 14.2272 3.38223 13.7615 3.34682 13.0929C3.3114 12.4243 3.63014 11.9468 4.30305 11.6602Z" fill="#FA6500"/>
<path d="M14.752 1.09394C14.5395 1.0223 14.3506 0.986485 14.1854 0.986485C13.6541 0.986485 13.2409 1.26706 12.9458 1.82821C12.568 2.5565 12.3969 3.38629 12.4323 4.31755C12.4913 5.76221 12.5562 7.03375 12.6271 8.13216C12.7097 9.40967 12.8159 10.6693 12.9458 11.911C12.993 12.3766 13.0816 13.2541 13.2114 14.5436C13.3177 15.5584 13.5007 16.2807 13.7604 16.7106C14.0319 17.2836 14.4097 17.5702 14.8937 17.5702C15.177 17.5702 15.5017 17.4687 15.8676 17.2657C15.9975 17.0986 16.1096 16.8419 16.2041 16.4956C16.3103 16.1494 16.3457 15.8748 16.3103 15.6718C16.3103 14.7764 16.328 13.8332 16.3635 12.8422C16.4225 11.2304 16.4048 9.48727 16.3103 7.6128C16.3103 7.11135 16.2985 6.36514 16.2749 5.37418C16.2159 2.83111 15.7083 1.40436 14.752 1.09394Z" fill="#FA6500"/>
<path d="M23.9191 2.50875C21.7233 2.40129 20.1768 2.83708 19.2796 3.8161C18.772 4.36531 18.4001 5.03988 18.164 5.83981C18.0341 6.25769 17.8866 7.02778 17.7213 8.15007C17.6859 8.38886 17.6682 8.68734 17.6682 9.04552C17.6682 9.82157 17.7626 10.8304 17.9515 12.0721C18.1522 13.4213 18.3824 14.3943 18.6421 14.9913C18.9845 15.7793 19.557 16.424 20.3598 16.9255C21.0681 17.3553 22.048 17.606 23.2993 17.6776C24.4563 17.7373 25.5069 17.5224 26.4514 17.0329C27.4548 16.5195 28.1926 15.7614 28.6649 14.7585C29.1489 13.7675 29.3909 12.7169 29.3909 11.6065C29.3909 11.308 29.3791 11.0394 29.3555 10.8006C29.1666 8.93807 29.0308 7.77995 28.9482 7.32626C28.4878 4.79513 27.5256 3.2848 26.0618 2.79529C25.6368 2.65202 24.9226 2.5565 23.9191 2.50875ZM25.8493 11.3737C25.8729 11.696 25.8847 11.9229 25.8847 12.0542C25.8847 13.0332 25.5778 13.7257 24.9639 14.1317C24.4799 14.454 23.9899 14.6152 23.4941 14.6152C23.2108 14.6152 22.9334 14.5615 22.6618 14.454C21.8945 14.1555 21.4695 13.3556 21.3869 12.0542C21.3278 11.1468 21.2865 10.0245 21.2629 8.68734C21.2511 7.64862 21.3928 6.90838 21.6879 6.46663C22.0421 5.9413 22.7091 5.6846 23.6889 5.69654C24.4208 5.70848 24.9521 6.13233 25.2826 6.96808C25.4715 7.46953 25.6073 8.2038 25.6899 9.17088C25.6899 9.17088 25.743 9.90515 25.8493 11.3737Z" fill="#FA6500"/>
<path d="M40.2113 4.96228C39.9752 3.00423 38.3225 1.98939 35.2531 1.91775C32.9156 1.85805 31.3986 2.42517 30.7021 3.6191C30.3007 4.31158 30.0115 5.52939 29.8344 7.27253C29.7046 8.64555 29.6691 9.92306 29.7282 11.105C29.8816 14.1615 30.8556 16.0658 32.65 16.818C33.9132 17.3433 35.076 17.5881 36.1385 17.5523C36.6107 17.5403 37.4016 17.3911 38.5113 17.1046C39.5148 16.6389 40.0165 16.03 40.0165 15.2778C40.0165 14.9913 39.9634 14.7107 39.8572 14.4361C39.5384 13.6123 38.8832 13.2004 37.8916 13.2004C37.5728 13.2004 37.1065 13.278 36.4926 13.4332C35.8906 13.5765 35.4301 13.6481 35.1114 13.6481C34.0135 13.6481 33.2934 13.087 32.951 11.9647C32.6795 11.0812 32.5437 10.2932 32.5437 9.6007C32.5437 9.08731 32.6205 8.60973 32.7739 8.16798C33.317 6.58005 34.35 5.78609 35.8728 5.78609C36.5339 5.78609 37.2954 5.92936 38.1572 6.2159C38.594 6.35917 38.9481 6.43081 39.2197 6.43081C39.8926 6.43081 40.229 6.06069 40.229 5.32045C40.229 5.17718 40.2231 5.05779 40.2113 4.96228Z" fill="#FA6500"/>
<path d="M51.6312 5.78609L49.0104 9.26043C48.3139 10.1917 47.641 11.0394 46.9917 11.8035C47.8653 12.1736 48.7389 12.5378 49.6125 12.8959C50.6277 13.4452 51.0999 14.1436 51.0291 14.9913C50.9701 15.7196 50.6632 16.2151 50.1083 16.4777C49.9548 16.5494 49.7896 16.5852 49.6125 16.5852C49.0812 16.5852 48.3493 16.2986 47.4167 15.7256L44.8667 14.1675C44.8195 15.2181 44.7959 15.8927 44.7959 16.1912C44.8077 16.8479 44.4594 17.3135 43.7511 17.5881C43.3852 17.7314 43.0664 17.803 42.7949 17.803C42.4998 17.803 42.2518 17.7254 42.0511 17.5702C41.5789 17.1881 41.3251 16.615 41.2897 15.8509C41.2897 15.3972 41.2897 14.7227 41.2897 13.8272C41.2543 12.1438 41.1657 10.2991 41.0241 8.29334C40.8824 6.22784 40.8352 4.65185 40.8824 3.56538C40.9296 2.50278 41.0772 1.79836 41.3251 1.45212C41.6557 0.986485 42.305 0.783517 43.273 0.843214C44.1348 0.890971 44.607 1.76254 44.6896 3.45792C44.7605 4.92646 44.7959 6.22187 44.7959 7.34417V9.70815C44.8549 9.58876 44.973 9.38579 45.1501 9.09925L45.8052 8.11425C46.2775 7.31432 47.0035 6.11442 47.9833 4.51455C49.0694 2.81917 49.9843 1.98939 50.7281 2.0252C51.519 2.06102 52.0975 2.37741 52.4635 2.97438C52.5815 3.16541 52.6405 3.37435 52.6405 3.60119C52.6405 4.16234 52.3041 4.89064 51.6312 5.78609Z" fill="#FA6500"/>
<path d="M63.3078 4.96228C63.0717 3.00423 61.419 1.98939 58.3496 1.91775C56.0121 1.85805 54.4951 2.42517 53.7986 3.6191C53.3972 4.31158 53.108 5.52939 52.9309 7.27253C52.8011 8.64555 52.7657 9.92306 52.8247 11.105C52.9781 14.1615 53.9521 16.0658 55.7465 16.818C57.0097 17.3433 58.1725 17.5881 59.235 17.5523C59.7072 17.5403 60.4982 17.3911 61.6079 17.1046C62.6113 16.6389 63.113 16.03 63.113 15.2778C63.113 14.9913 63.0599 14.7107 62.9537 14.4361C62.6349 13.6123 61.9797 13.2004 60.9881 13.2004C60.6693 13.2004 60.203 13.278 59.5891 13.4332C58.9871 13.5765 58.5267 13.6481 58.2079 13.6481C57.11 13.6481 56.3899 13.087 56.0475 11.9647C55.776 11.0812 55.6403 10.2932 55.6403 9.6007C55.6403 9.08731 55.717 8.60973 55.8705 8.16798C56.4135 6.58005 57.4465 5.78609 58.9694 5.78609C59.6305 5.78609 60.3919 5.92936 61.2537 6.2159C61.6905 6.35917 62.0447 6.43081 62.3162 6.43081C62.9891 6.43081 63.3255 6.06069 63.3255 5.32045C63.3255 5.17718 63.3196 5.05779 63.3078 4.96228Z" fill="#FA6500"/>
<path d="M73.2225 8.65152C72.951 8.48437 72.467 8.34707 71.7705 8.23962C71.5462 8.2038 71.3278 8.18589 71.1153 8.18589C69.6868 8.18589 68.282 9.05149 66.9007 10.7827C67.007 8.12022 67.0719 6.23381 67.0955 5.12346C67.1074 4.622 67.1074 4.1504 67.0955 3.70865L67.0778 2.6162C67.0778 2.01923 66.7414 1.58345 66.0685 1.30885C65.797 1.20139 65.549 1.14767 65.3247 1.14767C64.9234 1.14767 64.5338 1.279 64.156 1.54166C63.5421 1.97148 63.2411 2.79529 63.2529 4.0131C63.2647 4.94437 63.3296 6.1383 63.4477 7.59489L63.731 11.1588C63.8255 12.2691 63.8845 12.9258 63.9081 13.1288C63.9081 13.4034 63.9258 13.7675 63.9612 14.2212C64.0084 14.7585 64.0084 15.4569 63.9612 16.3166C63.9376 16.8419 64.1678 17.2419 64.6518 17.5165C65.0414 17.7314 65.5195 17.8388 66.0862 17.8388C67.0896 17.8388 67.733 17.1941 68.0164 15.9047C68.2171 14.9853 68.3941 14.2869 68.5476 13.8093C68.8545 12.8661 69.2028 12.2512 69.5924 11.9647C69.8403 11.7737 70.2122 11.6483 70.708 11.5886C71.1684 11.5289 71.5639 12.0423 71.8944 13.1288C71.9889 13.4272 72.2781 14.6212 72.7621 16.7106C72.9864 17.3553 73.4114 17.6776 74.0371 17.6776C75.2648 17.6776 75.8787 16.9195 75.8787 15.4032C75.8787 15.0689 75.8551 14.6809 75.8079 14.2391C75.7016 13.2123 75.4478 12.1856 75.0464 11.1588C74.527 9.82157 73.919 8.98582 73.2225 8.65152Z" fill="#FA6500"/>
<path d="M80.3807 2.20429C80.2508 2.25205 80.0443 2.3416 79.7609 2.47293C79.7019 2.50875 79.6193 2.54456 79.513 2.58038C79.0998 2.74753 78.787 3.17735 78.5745 3.86983C78.5155 4.0728 78.4859 4.24592 78.4859 4.38919C78.4859 4.8787 78.6984 5.30852 79.1234 5.67863C79.5484 6.04875 80.0029 6.23381 80.487 6.23381C80.6404 6.23381 80.7703 6.22187 80.8765 6.19799C81.5376 6.05472 82.0689 6.02487 82.4703 6.10845C82.8834 6.19202 83.2376 6.51439 83.5327 7.07553C83.7098 7.40983 83.7984 7.83368 83.7984 8.34707C83.7984 8.66943 83.7629 9.04552 83.6921 9.47533C83.6921 9.49921 83.6744 9.63054 83.639 9.86933C83.5091 9.77382 83.3438 9.64845 83.1432 9.49324C82.4112 9.05149 81.4963 8.83061 80.3984 8.83061C80.1387 8.83061 79.9262 8.83658 79.7609 8.84852C78.6512 8.93209 77.7127 9.34997 76.9454 10.1021C76.178 10.8543 75.7943 11.7856 75.7943 12.8959C75.7943 14.5555 76.4849 15.8688 77.8662 16.8359C78.3384 17.1702 78.9464 17.3553 79.6901 17.3911C80.5047 17.4389 81.3192 17.3195 82.1338 17.0329C83.0664 16.7106 83.7393 16.2569 84.1525 15.6718L84.3296 15.3137C84.6956 16.1733 85.1264 16.6449 85.6223 16.7285C85.7639 16.7523 85.8997 16.7643 86.0296 16.7643C86.5726 16.7643 86.9858 16.5315 87.2691 16.0658C87.3281 15.9703 87.3577 15.833 87.3577 15.6539C87.3577 15.2599 87.1865 14.7883 86.8441 14.2391C86.549 13.7615 86.4014 12.9139 86.4014 11.696C86.4014 11.111 86.4368 10.4544 86.5077 9.72606C86.732 7.38595 86.7969 5.91742 86.7025 5.32045C86.6198 4.79512 86.4014 4.24592 86.0473 3.67283C85.7994 3.25495 85.3389 2.8729 84.666 2.52666C84.0049 2.16848 83.4324 1.98939 82.9484 1.98939H81.7442C81.1776 1.97745 80.7231 2.04908 80.3807 2.20429ZM79.8672 14.5973C79.6311 14.5973 79.4127 14.5376 79.212 14.4182C78.7988 14.1794 78.6276 13.7257 78.6984 13.0571C78.7693 12.293 79.2887 11.911 80.2568 11.911C80.8234 11.911 81.213 12.2154 81.4255 12.8243C81.4963 13.0273 81.5317 13.2004 81.5317 13.3437C81.5317 13.7257 81.3428 14.0361 80.9651 14.2749C80.6345 14.4898 80.2686 14.5973 79.8672 14.5973Z" fill="#FA6500"/>
<path d="M91.0097 5.92936C91.7534 5.95324 92.3909 5.58312 92.9221 4.819C93.111 4.5444 93.2055 4.18025 93.2055 3.72656C93.2055 3.42807 93.17 3.09377 93.0992 2.72365C92.9103 1.73269 92.3909 1.17154 91.5409 1.04021C91.3166 1.00439 91.0628 0.986485 90.7795 0.986485C90.0593 0.986485 89.5222 1.16557 89.168 1.52375C88.8257 1.88193 88.5955 2.43114 88.4774 3.17138C88.4302 3.45792 88.4066 3.69671 88.4066 3.88774C88.4066 4.37725 88.5305 4.76528 88.7785 5.05182C88.9909 5.29061 89.3392 5.51745 89.8232 5.73236C90.0829 5.85175 90.4784 5.91742 91.0097 5.92936ZM90.992 8.36498C90.3427 8.50825 89.9236 9.27237 89.7347 10.6573C89.6993 10.9081 89.6402 11.899 89.5576 13.6302C89.4986 14.7644 89.4986 15.4927 89.5576 15.8151C89.6875 16.6628 90.0888 17.1941 90.7617 17.409C91.0569 17.5045 91.3461 17.5523 91.6294 17.5523C91.9246 17.5523 92.202 17.4926 92.4617 17.3732C92.9457 17.1583 93.1996 16.7344 93.2232 16.1017C93.235 15.7196 93.1936 15.1465 93.0992 14.3824C93.0048 13.6302 92.9634 13.0631 92.9753 12.681C93.0225 11.7498 92.993 10.9498 92.8867 10.2812C92.7096 9.13506 92.3673 8.50825 91.8596 8.4008C91.5645 8.35304 91.3402 8.32916 91.1867 8.32916C91.0805 8.32916 91.0156 8.3411 90.992 8.36498Z" fill="#FA6500"/>
<path d="M100.6 7.34417C101.45 7.42774 102.017 7.63668 102.3 7.97098C102.595 8.29334 102.755 8.89031 102.778 9.76188C102.802 10.5021 102.772 11.6244 102.69 13.1288C102.631 14.3108 102.666 15.1883 102.796 15.7614C103.032 16.7643 103.593 17.3135 104.478 17.409C105.588 17.5284 106.219 16.8001 106.373 15.2241C106.385 15.057 106.402 14.4063 106.426 13.272C106.45 12.1378 106.396 10.5797 106.267 8.59779C106.125 6.3532 105.529 4.86079 104.478 4.12055C103.723 3.58328 102.843 3.31465 101.84 3.31465C101.497 3.31465 101.078 3.36241 100.582 3.45792C99.0241 3.7564 98.0029 4.13249 97.5189 4.58619C97.5543 4.35934 97.572 4.13249 97.572 3.90565C97.572 3.59522 97.5425 3.27286 97.4835 2.93856C97.3536 2.37741 96.9758 2.06102 96.3502 1.98939C95.1342 1.85805 94.3905 2.31772 94.1189 3.36838C93.9891 3.85789 94.0068 5.016 94.1721 6.84272C94.3609 8.99179 94.4436 10.323 94.42 10.8364L94.2783 13.3795C94.2429 14.0123 94.2252 14.5913 94.2252 15.1167C94.2252 16.5852 94.8863 17.2956 96.2085 17.2478C97.3772 17.2001 97.9144 16.1733 97.8199 14.1675C97.7845 13.7377 97.7432 13.087 97.696 12.2154C97.6369 10.7946 97.755 9.69024 98.0501 8.90225C98.4515 7.85159 99.1775 7.32626 100.228 7.32626C100.346 7.32626 100.47 7.33223 100.6 7.34417Z" fill="#FA6500"/>
<path d="M117.973 0.00149254C117.17 0.0134317 116.368 0.126855 115.565 0.341763C113.77 0.819335 112.82 2.05505 112.714 4.04892C112.667 4.87273 112.643 5.70848 112.643 6.55617C112.643 8.84852 112.808 11.2006 113.139 13.6123C113.399 15.4868 114.136 16.7404 115.352 17.3732C115.789 17.6 116.438 17.7791 117.3 17.9105C117.713 17.9702 118.138 18 118.575 18C119.732 18 120.96 17.7791 122.259 17.3374C123.392 16.9553 124.112 16.227 124.419 15.1525C124.537 14.7346 124.59 14.0958 124.578 13.2362C124.543 11.517 123.876 10.2633 122.577 9.47533C121.975 9.11715 120.7 8.78285 118.752 8.47243C120.901 8.23365 122.306 7.60683 122.967 6.59199C123.51 5.75624 123.781 4.90258 123.781 4.03101C123.781 3.86386 123.764 3.66089 123.728 3.4221C123.457 1.58345 122.335 0.502943 120.364 0.180582C119.573 0.0492492 118.776 -0.0104473 117.973 0.00149254ZM115.689 4.29964C115.653 3.23704 116.255 2.68784 117.495 2.65202C118.758 2.6162 119.431 3.04602 119.514 3.94146C119.608 4.84885 118.994 5.40403 117.672 5.607C117.448 5.64282 117.265 5.66072 117.123 5.66072C116.202 5.66072 115.724 5.20703 115.689 4.29964ZM116.946 11.6602C117.312 11.505 117.672 11.4274 118.026 11.4274C118.31 11.4274 118.593 11.4692 118.876 11.5528C119.951 11.8751 120.488 12.4064 120.488 13.1467C120.488 13.3138 120.458 13.4929 120.399 13.6839C120.187 14.3764 119.567 14.7227 118.54 14.7227C118.115 14.7227 117.672 14.6451 117.212 14.4898C116.433 14.2272 116.025 13.7615 115.99 13.0929C115.954 12.4243 116.273 11.9468 116.946 11.6602Z" fill="#FA6500"/>
<path d="M137.453 15.0987C137.453 14.8361 137.406 14.5913 137.312 14.3645C137.087 13.8272 136.851 12.6333 136.603 10.7827C136.473 9.82754 136.408 8.90225 136.408 8.0068C136.408 7.68444 136.438 7.2009 136.497 6.55617C136.556 5.91145 136.586 5.42791 136.586 5.10555C136.586 3.92355 136.084 3.24301 135.08 3.06393C134.939 3.04005 134.791 3.02811 134.638 3.02811C133.717 3.02811 133.233 3.6191 133.186 4.80109C133.174 5.76818 133.15 7.2188 133.115 9.15297C133.079 10.6215 132.967 11.6363 132.778 12.1975C132.424 13.272 131.698 13.8093 130.6 13.8093C129.443 13.8093 128.812 13.3437 128.705 12.4124C128.623 11.6602 128.605 10.2633 128.652 8.22171C128.688 6.62184 128.682 5.60103 128.635 5.15927C128.469 3.71462 127.997 2.96244 127.218 2.90274C125.837 2.79529 125.111 3.49971 125.04 5.016C124.957 6.67557 124.969 7.89338 125.075 8.66943C125.123 9.05149 125.187 10.0305 125.27 11.6065C125.341 12.8124 125.471 13.7854 125.66 14.5257C125.931 15.5405 126.551 16.2867 127.519 16.7643C128.334 17.1583 129.308 17.3254 130.441 17.2657C131.728 17.1941 132.778 16.9314 133.593 16.4777C134.136 16.1793 134.396 15.827 134.372 15.4211C134.49 15.9823 134.868 16.3703 135.505 16.5852C135.741 16.6688 135.972 16.7106 136.196 16.7106C136.597 16.7106 136.916 16.5374 137.152 16.1912C137.353 15.8927 137.453 15.5286 137.453 15.0987Z" fill="#FA6500"/>
<path d="M142.353 6.26963C142.483 5.25479 142.442 4.22801 142.229 3.18929C142.052 2.35354 141.462 1.93566 140.458 1.93566C140.258 1.93566 140.033 1.95357 139.786 1.98939C139.455 1.96551 139.077 2.18639 138.652 2.65202C138.369 2.96244 138.227 3.52359 138.227 4.33546C138.227 4.71752 138.263 5.17718 138.334 5.71445C138.463 6.68154 138.599 8.12619 138.741 10.0484C138.882 11.9706 139.012 13.3974 139.13 14.3287C139.248 15.248 139.372 15.8569 139.502 16.1554C139.727 16.6449 140.152 17.0449 140.777 17.3553C140.895 17.415 141.037 17.4448 141.202 17.4448C141.497 17.4448 141.828 17.3195 142.194 17.0687C142.642 16.7583 142.867 15.9643 142.867 14.6868C142.867 14.3645 142.843 13.8869 142.796 13.2541C142.761 12.6094 142.743 12.1259 142.743 11.8035C142.743 10.6454 142.89 9.88127 143.186 9.51115C143.953 8.54407 145.257 7.98292 147.099 7.82771C147.925 7.76801 148.297 7.22477 148.215 6.19799C148.144 5.18315 147.483 4.62797 146.231 4.53246C144.98 4.43695 143.687 5.016 142.353 6.26963Z" fill="#FA6500"/>
<path d="M152.749 1.86402C150.022 2.26996 148.541 3.66089 148.305 6.03681C148.175 7.32626 148.34 8.35901 148.801 9.13506C149.296 9.94694 150.152 10.526 151.368 10.8722C151.829 11.0036 152.307 11.0692 152.803 11.0692C153.841 11.0692 154.839 10.729 155.795 10.0484C155.949 10.9677 155.978 11.911 155.884 12.878C155.801 13.8212 155.488 14.4839 154.945 14.8659C154.627 15.0928 154.326 15.2062 154.042 15.2062C153.794 15.2062 153.546 15.1226 153.298 14.9555C152.767 14.5973 152.443 14.0302 152.325 13.2541C152.23 12.6572 151.829 12.3587 151.12 12.3587C150.943 12.3587 150.748 12.3766 150.536 12.4124C149.485 12.5915 148.99 13.2064 149.049 14.257C149.119 15.3674 149.409 16.2091 149.916 16.7822C150.436 17.3553 151.244 17.7135 152.342 17.8567C152.602 17.8925 152.879 17.9105 153.174 17.9105C154.709 17.9105 155.949 17.3553 156.893 16.2449C157.79 15.1943 158.245 13.8809 158.257 12.3049L158.274 9.90515C158.298 9.43952 158.333 8.44855 158.381 6.93226C158.44 5.22494 157.926 3.88774 156.84 2.92065C156.002 2.16848 154.963 1.79239 153.723 1.79239C153.393 1.79239 153.068 1.81627 152.749 1.86402ZM152.431 5.06973C153.139 4.99809 153.682 5.2727 154.06 5.89354C154.237 6.18008 154.326 6.46066 154.326 6.73526C154.326 7.03374 154.219 7.30238 154.007 7.54117C153.582 8.01874 153.021 8.23365 152.325 8.18589C151.616 8.12619 151.28 7.60086 151.315 6.6099C151.339 5.65475 151.711 5.14136 152.431 5.06973Z" fill="#FA6500"/>
<path d="M169.721 5.71445C169.697 3.68477 168.588 2.4192 166.392 1.91775C165.648 1.7506 164.952 1.66703 164.302 1.66703C163.063 1.66703 162.054 2.00133 161.274 2.66993C159.728 3.7564 158.955 5.64879 158.955 8.34707C158.955 9.00373 158.99 9.64845 159.061 10.2812C159.474 14.0182 160.389 16.2807 161.806 17.0687C162.667 17.5463 163.535 17.7851 164.409 17.7851C164.975 17.7851 165.548 17.6896 166.126 17.4985C167.626 17.009 168.334 16.239 168.251 15.1883C168.192 14.3406 167.868 13.9168 167.277 13.9168C167.1 13.9168 166.935 13.9406 166.782 13.9884C165.908 14.263 165.034 14.3525 164.161 14.257C163.429 14.1854 162.856 13.6302 162.443 12.5915C162.183 11.9348 162.054 11.3379 162.054 10.8006C162.054 10.5976 162.071 10.4006 162.107 10.2096C163.264 10.723 164.314 10.9797 165.259 10.9797C166.168 10.9797 166.97 10.729 167.667 10.2275C169.06 9.22461 169.745 7.72026 169.721 5.71445ZM164.267 5.08764C164.515 4.98018 164.727 4.92646 164.905 4.92646C165.389 4.92646 165.755 5.23688 166.002 5.85772C166.168 6.26366 166.25 6.6099 166.25 6.89644C166.25 7.19493 166.156 7.42774 165.967 7.59489C165.613 7.91725 165.141 8.06053 164.55 8.02471C164.161 8.00083 163.818 7.85756 163.523 7.59489C163.24 7.32029 163.092 6.98599 163.081 6.59199C163.057 5.93533 163.452 5.43388 164.267 5.08764Z" fill="#FA6500"/>
<path d="M174.127 6.26963C174.257 5.25479 174.216 4.22801 174.003 3.18929C173.826 2.35354 173.236 1.93566 172.233 1.93566C172.032 1.93566 171.808 1.95357 171.56 1.98939C171.229 1.96551 170.851 2.18639 170.426 2.65202C170.143 2.96244 170.001 3.52359 170.001 4.33546C170.001 4.71752 170.037 5.17718 170.108 5.71445C170.238 6.68154 170.373 8.12619 170.515 10.0484C170.657 11.9706 170.786 13.3974 170.904 14.3287C171.023 15.248 171.147 15.8569 171.276 16.1554C171.501 16.6449 171.926 17.0449 172.551 17.3553C172.669 17.415 172.811 17.4448 172.976 17.4448C173.271 17.4448 173.602 17.3195 173.968 17.0687C174.417 16.7583 174.641 15.9643 174.641 14.6868C174.641 14.3645 174.617 13.8869 174.57 13.2541C174.535 12.6094 174.517 12.1259 174.517 11.8035C174.517 10.6454 174.665 9.88127 174.96 9.51115C175.727 8.54407 177.031 7.98292 178.873 7.82771C179.699 7.76801 180.071 7.22477 179.989 6.19799C179.918 5.18315 179.257 4.62797 178.005 4.53246C176.754 4.43695 175.461 5.016 174.127 6.26963Z" fill="#FA6500"/>
</svg>
