<svg width="559" height="395" viewBox="0 0 559 395" fill="none" xmlns="http://www.w3.org/2000/svg">
<path d="M360.4 331.924H391.6C393.669 331.924 395.653 332.746 397.115 334.208C398.578 335.671 399.4 337.655 399.4 339.724V355.324C399.4 376.828 381.905 394.324 360.4 394.324H220C198.495 394.324 181 376.828 181 355.324V339.724C181 337.655 181.822 335.671 183.285 334.208C184.747 332.746 186.731 331.924 188.8 331.924H298C299.688 331.922 301.331 332.47 302.68 333.484C302.68 333.484 316.7 344.424 330.5 344.424C344.3 344.424 355.72 333.484 355.72 333.484C357.069 332.47 358.712 331.922 360.4 331.924Z" fill="black"/>
<path fill-rule="evenodd" clip-rule="evenodd" d="M31.1 114.824C35.8354 114.824 40.1215 115.779 43.908 117.742C47.686 119.634 50.6661 122.347 52.7991 125.869C55.011 129.343 56.1 133.282 56.1 137.624C56.1 141.277 55.0873 144.606 53.0545 147.548C51.8929 149.287 50.4709 150.814 48.8018 152.132C51.8435 153.443 54.4084 155.348 56.4522 157.863C59.396 161.486 60.8 166.025 60.8 171.324C60.8 176.192 59.6152 180.621 57.2138 184.555C54.8778 188.492 51.5581 191.544 47.313 193.704C43.1279 195.867 38.4076 196.924 33.2 196.924H7.2C5.22487 196.924 3.47611 196.229 2.08579 194.838C0.695462 193.448 0 191.699 0 189.724V122.024C0 120.022 0.671047 118.242 2.10998 116.886C3.49638 115.512 5.23631 114.824 7.2 114.824H31.1ZM39.2453 144.467L39.2346 144.475L39.224 144.484C37.3447 146.041 34.7083 146.924 31.1 146.924H14.4V128.424H31.1C34.7083 128.424 37.3447 129.307 39.224 130.864L39.2477 130.884L39.2721 130.903C41.083 132.311 42.1 134.433 42.1 137.624C42.1 140.813 41.0828 142.987 39.2453 144.467ZM43.2644 163.397L43.2733 163.404L43.2824 163.411C45.5804 165.174 46.8 167.711 46.8 171.324C46.8 175.319 45.5432 178.183 43.2057 180.199C40.7824 182.224 37.5111 183.324 33.2 183.324H14.4V160.524H33.2C37.6327 160.524 40.9174 161.553 43.2644 163.397Z" fill="#FA6500"/>
<path d="M77.3123 194.258L77.3395 194.277L77.3673 194.296C80.0359 196.049 83.0197 196.924 86.2656 196.924H86.4656C88.776 196.924 90.8583 196.382 92.552 195.134C94.2869 193.856 95.2656 192.078 95.2656 189.924C95.2656 188.048 94.7014 186.347 93.4579 184.992C92.2456 183.595 90.6135 182.924 88.7656 182.924H86.2656C85.7032 182.924 85.0773 182.689 84.3932 181.516C83.688 180.308 83.2656 178.65 83.2656 176.424V121.824C83.2656 119.892 82.6316 118.162 81.2798 116.81C79.9281 115.458 78.1981 114.824 76.2656 114.824C74.3331 114.824 72.6031 115.458 71.2514 116.81C69.8997 118.162 69.2656 119.892 69.2656 121.824V176.424C69.2656 180.2 69.9436 183.681 71.3363 186.833L71.3398 186.841L71.3434 186.849C72.7407 189.937 74.7239 192.431 77.3123 194.258Z" fill="#FA6500"/>
<path fill-rule="evenodd" clip-rule="evenodd" d="M140.202 193.566L140.211 193.561C144.726 190.981 148.255 187.417 150.767 182.896C153.283 178.367 154.519 173.259 154.519 167.624C154.519 161.922 153.249 156.776 150.661 152.242C148.15 147.726 144.622 144.197 140.106 141.685C135.642 139.097 130.594 137.824 125.019 137.824C119.378 137.824 114.267 139.096 109.737 141.682C105.215 144.196 101.683 147.73 99.1704 152.253C96.6524 156.785 95.4187 161.927 95.4187 167.624C95.4187 173.259 96.6544 178.367 99.1704 182.896C101.682 187.417 105.212 190.981 109.726 193.561L109.737 193.567L109.747 193.573C114.276 196.089 119.384 197.324 125.019 197.324C130.653 197.324 135.733 196.089 140.202 193.566ZM133.108 182.198L133.099 182.204L133.09 182.209C130.763 183.606 128.091 184.324 125.019 184.324C121.951 184.324 119.241 183.607 116.839 182.204C114.492 180.793 112.643 178.862 111.278 176.372C109.919 173.828 109.219 170.927 109.219 167.624C109.219 164.317 109.92 161.414 111.282 158.868C112.651 156.308 114.501 154.35 116.838 152.945C119.24 151.541 121.951 150.824 125.019 150.824C128.091 150.824 130.763 151.543 133.09 152.939L133.099 152.945L133.108 152.95C135.507 154.354 137.342 156.302 138.638 158.835L138.647 158.851L138.655 158.868C140.017 161.414 140.719 164.317 140.719 167.624C140.719 170.931 140.017 173.835 138.655 176.381L138.651 176.389L138.647 176.396C137.355 178.863 135.519 180.787 133.108 182.198Z" fill="#FA6500"/>
<path d="M197.881 155.549L197.918 155.566L197.956 155.581C199.64 156.254 201.23 157.364 202.719 158.969C204.143 160.563 205.972 161.424 208.099 161.424C209.344 161.424 210.513 161.082 211.535 160.37C213.412 159.087 214.599 157.292 214.599 155.024C214.599 153.54 214.09 152.199 213.096 151.097C207.523 144.675 200.445 141.424 191.999 141.424C186.483 141.424 181.468 142.7 177.005 145.288C172.544 147.81 169.05 151.382 166.544 155.964L166.539 155.974C164.097 160.499 162.899 165.598 162.899 171.224C162.899 176.735 164.139 181.802 166.644 186.383L166.653 186.4L166.663 186.416C169.24 190.926 172.797 194.483 177.307 197.06C181.836 199.648 186.916 200.924 192.499 200.924C200.151 200.924 206.654 198.534 211.862 193.688L211.888 193.663L211.913 193.638C213.035 192.517 213.699 191.126 213.699 189.524C213.699 187.461 212.687 185.741 211.087 184.394L211.044 184.358L210.999 184.324C209.879 183.484 208.597 183.024 207.199 183.024C205.457 183.024 203.817 183.706 202.313 184.814L202.265 184.849L202.219 184.887C199.859 186.854 196.682 187.924 192.499 187.924C189.357 187.924 186.615 187.204 184.219 185.803C181.877 184.396 180.031 182.47 178.667 179.988C177.369 177.441 176.699 174.534 176.699 171.224C176.699 165.952 178.176 161.948 180.956 158.995L180.962 158.988L180.969 158.98C183.755 155.963 187.369 154.424 191.999 154.424C194.305 154.424 196.25 154.818 197.881 155.549Z" fill="#FA6500"/>
<path d="M269.607 206.086L269.623 206.073L269.638 206.06C271.26 204.709 272.158 202.927 272.158 200.824C272.158 199.202 271.654 197.72 270.575 196.52L252.417 174.244L269.357 159.145C270.876 157.893 271.658 156.197 271.658 154.224C271.658 152.515 271.03 151.003 269.844 149.783C268.596 148.291 266.912 147.524 264.958 147.524C263.235 147.524 261.712 148.162 260.487 149.367L239.558 168.056V131.824C239.558 129.918 238.939 128.207 237.573 126.909C236.275 125.543 234.563 124.924 232.658 124.924C230.725 124.924 228.995 125.558 227.644 126.91C226.33 128.224 225.758 129.938 225.758 131.824V200.124C225.758 202.013 226.33 203.725 227.592 205.085L227.643 205.139L227.697 205.189C229.056 206.452 230.768 207.024 232.658 207.024C234.543 207.024 236.258 206.452 237.572 205.138C238.924 203.786 239.558 202.056 239.558 200.124V185.728L242.314 183.303L259.979 205.152L259.992 205.168C261.287 206.824 263.055 207.724 265.158 207.724C266.804 207.724 268.301 207.13 269.607 206.086Z" fill="#FA6500"/>
<path d="M309.893 158.049L309.93 158.066L309.968 158.081C311.652 158.754 313.242 159.864 314.731 161.47C316.155 163.063 317.984 163.924 320.111 163.924C321.356 163.924 322.525 163.582 323.548 162.869C325.424 161.587 326.611 159.792 326.611 157.524C326.611 156.04 326.101 154.699 325.108 153.597C319.534 147.175 312.457 143.924 304.011 143.924C298.494 143.924 293.479 145.2 289.017 147.788C284.555 150.31 281.062 153.882 278.556 158.464L278.551 158.474C276.109 162.999 274.911 168.098 274.911 173.724C274.911 179.235 276.151 184.302 278.656 188.883L278.665 188.9L278.674 188.916C281.252 193.426 284.809 196.983 289.319 199.56C293.847 202.148 298.928 203.424 304.511 203.424C312.163 203.424 318.666 201.034 323.873 196.188L323.9 196.163L323.925 196.138C325.047 195.017 325.711 193.626 325.711 192.024C325.711 189.961 324.698 188.241 323.099 186.894L323.056 186.858L323.011 186.824C321.891 185.984 320.609 185.524 319.211 185.524C317.468 185.524 315.828 186.206 314.325 187.314L314.276 187.349L314.231 187.387C311.871 189.354 308.694 190.424 304.511 190.424C301.369 190.424 298.627 189.704 296.231 188.304C293.889 186.896 292.043 184.97 290.679 182.488C289.381 179.941 288.711 177.034 288.711 173.724C288.711 168.452 290.188 164.448 292.967 161.495L292.974 161.488L292.981 161.48C295.766 158.463 299.381 156.924 304.011 156.924C306.317 156.924 308.262 157.318 309.893 158.049Z" fill="#FA6500"/>
<path d="M380.807 207.588L380.854 207.639L380.905 207.686C382.304 208.991 384.036 209.624 385.97 209.624C387.902 209.624 389.632 208.99 390.984 207.638C392.374 206.248 393.07 204.499 393.07 202.524V177.924C393.07 172.275 391.989 167.331 389.73 163.175C387.49 158.986 384.352 155.763 380.327 153.568C376.338 151.392 371.87 150.324 366.97 150.324C363.397 150.324 360.011 150.967 356.83 152.265C355.085 152.941 353.464 153.783 351.97 154.793V134.524C351.97 132.553 351.353 130.779 349.984 129.41C348.615 128.04 346.841 127.424 344.87 127.424C342.936 127.424 341.204 128.056 339.805 129.362L339.78 129.385L339.755 129.41C338.386 130.779 337.77 132.553 337.77 134.524V202.524C337.77 204.457 338.402 206.19 339.707 207.588L339.754 207.639L339.805 207.686C341.204 208.991 342.936 209.624 344.87 209.624C346.841 209.624 348.615 209.007 349.984 207.638L350.008 207.614L350.032 207.588C351.337 206.19 351.97 204.457 351.97 202.524V174.324C351.97 172.306 352.493 170.529 353.529 168.94C354.653 167.318 356.177 166.008 358.154 165.018C360.191 164.03 362.452 163.524 364.97 163.524C369.358 163.524 372.651 164.79 375.072 167.155L375.089 167.171L375.106 167.187C377.507 169.424 378.87 172.878 378.87 177.924V202.524C378.87 204.457 379.502 206.19 380.807 207.588Z" fill="#FA6500"/>
<path fill-rule="evenodd" clip-rule="evenodd" d="M450.069 194.989L450.116 195.039L450.167 195.086C451.565 196.392 453.298 197.024 455.231 197.024C457.164 197.024 458.894 196.39 460.245 195.038C461.636 193.648 462.331 191.899 462.331 189.924V167.624C462.331 162.099 461.018 157.051 458.365 152.527C455.793 147.962 452.244 144.375 447.74 141.797C443.28 139.14 438.294 137.824 432.831 137.824C427.363 137.824 422.317 139.142 417.735 141.79C413.221 144.37 409.666 147.964 407.092 152.537C404.508 157.06 403.231 162.105 403.231 167.624C403.231 173.116 404.396 178.168 406.754 182.741L406.762 182.758L406.771 182.774C409.195 187.266 412.499 190.83 416.677 193.424L416.683 193.428L416.69 193.431C420.95 196.031 425.68 197.324 430.831 197.324C434.983 197.324 438.881 196.463 442.497 194.727C444.578 193.728 446.482 192.498 448.205 191.039C448.406 192.525 449.02 193.865 450.069 194.989ZM440.771 153.02L440.796 153.036L440.821 153.05C443.227 154.459 445.104 156.417 446.468 158.968C447.833 161.519 448.531 164.391 448.531 167.624C448.531 170.854 447.834 173.722 446.473 176.272C445.109 178.758 443.225 180.73 440.795 182.213C438.464 183.611 435.826 184.324 432.831 184.324C429.844 184.324 427.171 183.614 424.767 182.213C422.407 180.732 420.515 178.757 419.081 176.256C417.725 173.71 417.031 170.847 417.031 167.624C417.031 164.397 417.727 161.531 419.087 158.983C420.525 156.412 422.415 154.446 424.76 153.039L424.766 153.036L424.772 153.032C427.179 151.564 429.849 150.824 432.831 150.824C435.813 150.824 438.442 151.564 440.771 153.02Z" fill="#FA6500"/>
<path d="M476.547 140.162L476.522 140.186L476.497 140.21C475.128 141.579 474.512 143.353 474.512 145.324V189.824C474.512 191.757 475.144 193.49 476.45 194.889L476.497 194.939L476.547 194.986C477.946 196.292 479.679 196.924 481.612 196.924C483.583 196.924 485.357 196.308 486.726 194.938L486.75 194.914L486.774 194.889C488.079 193.49 488.712 191.757 488.712 189.824V145.324C488.712 143.353 488.095 141.579 486.726 140.21C485.357 138.841 483.583 138.224 481.612 138.224C479.679 138.224 477.946 138.857 476.547 140.162Z" fill="#FA6500"/>
<path d="M475.462 130.802L475.497 130.839L475.534 130.874C477.23 132.485 479.287 133.324 481.612 133.324C483.939 133.324 485.982 132.482 487.626 130.838C489.314 129.15 490.212 127.082 490.212 124.724C490.212 122.38 489.323 120.339 487.626 118.709C485.997 117.013 483.956 116.124 481.612 116.124C479.254 116.124 477.186 117.021 475.497 118.71C473.854 120.354 473.012 122.397 473.012 124.724C473.012 127.049 473.85 129.106 475.462 130.802Z" fill="#FA6500"/>
<path d="M546.725 194.989L546.772 195.039L546.823 195.086C548.221 196.392 549.954 197.024 551.888 197.024C553.82 197.024 555.55 196.39 556.902 195.038C558.292 193.648 558.987 191.899 558.987 189.924V165.324C558.987 159.675 557.907 154.732 555.648 150.576C553.408 146.386 550.27 143.164 546.245 140.968C542.256 138.792 537.787 137.724 532.888 137.724C529.315 137.724 525.929 138.367 522.748 139.666C520.813 140.415 519.03 141.369 517.403 142.529C517.078 141.673 516.583 140.891 515.902 140.21C514.532 138.841 512.759 138.224 510.787 138.224C508.854 138.224 507.121 138.857 505.723 140.162L505.698 140.186L505.673 140.21C504.304 141.579 503.688 143.353 503.688 145.324V189.924C503.688 191.857 504.32 193.59 505.625 194.989L505.672 195.039L505.723 195.086C507.121 196.392 508.854 197.024 510.787 197.024C512.759 197.024 514.532 196.408 515.902 195.038L515.926 195.014L515.95 194.989C517.255 193.59 517.888 191.857 517.888 189.924V161.724C517.888 159.706 518.412 157.929 519.448 156.339C520.572 154.717 522.096 153.408 524.072 152.418C526.109 151.431 528.37 150.924 530.888 150.924C535.275 150.924 538.569 152.19 540.99 154.555L541.007 154.571L541.024 154.587C543.425 156.825 544.787 160.279 544.787 165.324V189.924C544.787 191.857 545.42 193.59 546.725 194.989Z" fill="#FA6500"/>
<path fill-rule="evenodd" clip-rule="evenodd" d="M150.534 226.824C155.269 226.824 159.555 227.779 163.342 229.742C167.12 231.634 170.1 234.347 172.233 237.869C174.445 241.343 175.534 245.282 175.534 249.624C175.534 253.277 174.521 256.605 172.488 259.548C171.327 261.287 169.905 262.814 168.235 264.132C171.277 265.443 173.842 267.348 175.886 269.863C178.83 273.486 180.234 278.025 180.234 283.324C180.234 288.193 179.049 292.622 176.647 296.556C174.31 300.494 170.99 303.545 166.744 305.705C162.56 307.868 157.84 308.924 152.634 308.924H126.634C124.658 308.924 122.91 308.229 121.519 306.838C120.129 305.448 119.434 303.699 119.434 301.724V234.024C119.434 232.022 120.105 230.242 121.543 228.886C122.93 227.512 124.67 226.824 126.634 226.824H150.534ZM158.679 256.467L158.668 256.475L158.658 256.484C156.778 258.041 154.142 258.924 150.534 258.924H133.834V240.424H150.534C154.142 240.424 156.778 241.307 158.658 242.864L158.681 242.884L158.706 242.903C160.517 244.311 161.534 246.433 161.534 249.624C161.534 252.813 160.516 254.987 158.679 256.467ZM162.698 275.397L162.707 275.404L162.716 275.411C165.014 277.174 166.234 279.711 166.234 283.324C166.234 287.319 164.977 290.182 162.64 292.199C160.217 294.223 156.945 295.324 152.634 295.324H133.834V272.524H152.634C157.066 272.524 160.351 273.553 162.698 275.397Z" fill="#FA6500"/>
<path d="M242.913 297.438L242.938 297.414L242.961 297.388C244.267 295.99 244.899 294.257 244.899 292.324V247.724C244.899 245.753 244.283 243.979 242.913 242.61C241.544 241.24 239.77 240.624 237.799 240.624C235.866 240.624 234.133 241.256 232.735 242.562L232.709 242.585L232.685 242.61C231.316 243.979 230.699 245.753 230.699 247.724V275.924C230.699 277.928 230.151 279.697 229.053 281.288L229.039 281.308L229.026 281.328C227.981 282.923 226.474 284.23 224.425 285.225L224.415 285.23L224.405 285.235C222.444 286.215 220.222 286.724 217.699 286.724C213.31 286.724 209.971 285.489 207.48 283.177C205.128 280.87 203.799 277.367 203.799 272.324V247.724C203.799 245.771 203.117 244.044 201.714 242.709C200.379 241.306 198.652 240.624 196.699 240.624C194.724 240.624 192.975 241.319 191.585 242.71C190.233 244.061 189.599 245.791 189.599 247.724V272.324C189.599 277.978 190.682 282.95 192.935 287.167L192.939 287.173L192.942 287.179C195.186 291.305 198.324 294.489 202.342 296.68C206.331 298.856 210.799 299.924 215.699 299.924C219.264 299.924 222.643 299.317 225.82 298.089L225.838 298.082L225.856 298.075C227.792 297.283 229.576 296.298 231.203 295.12C231.524 295.945 232.001 296.707 232.637 297.388L232.684 297.439L232.735 297.486C234.133 298.791 235.866 299.424 237.799 299.424C239.77 299.424 241.544 298.807 242.913 297.438Z" fill="#FA6500"/>
<path fill-rule="evenodd" clip-rule="evenodd" d="M260.749 307.138L260.777 307.167L260.807 307.194C262.158 308.441 263.942 308.924 265.863 308.924C267.838 308.924 269.693 308.411 271.005 307.01C272.331 305.667 272.863 303.872 272.863 301.924V272.724C272.863 269.607 274.044 267.238 276.463 265.424C278.957 263.554 282.362 262.524 286.863 262.524C288.361 262.524 290.393 262.736 292.996 263.19C293.678 263.326 294.33 263.424 294.863 263.424C296.252 263.424 297.571 263.059 298.663 262.186C299.732 261.331 300.397 260.136 300.779 258.801C300.939 258.283 300.963 257.692 300.963 257.224C300.963 254.593 299.25 252.71 296.904 251.46C294.497 250.176 291.359 249.624 287.663 249.624C284.055 249.624 280.638 250.348 277.436 251.803C275.657 252.612 274.028 253.594 272.553 254.75C272.273 253.737 271.785 252.818 271.027 252.06C269.687 250.719 267.838 250.224 265.863 250.224C263.901 250.224 262.095 250.764 260.749 252.11C259.403 253.456 258.863 255.262 258.863 257.224V301.924C258.863 303.926 259.388 305.778 260.749 307.138Z" fill="#FA6500"/>
<path fill-rule="evenodd" clip-rule="evenodd" d="M304.72 319.86L304.725 319.866C307.721 323.648 311.44 326.544 315.857 328.541C320.266 330.602 325.02 331.624 330.092 331.624C335.75 331.624 340.874 330.278 345.409 327.546C349.989 324.895 353.547 321.227 356.053 316.572C358.554 311.927 359.792 306.798 359.792 301.224V279.624C359.792 273.922 358.523 268.776 355.934 264.242C353.423 259.726 349.895 256.197 345.38 253.685C340.915 251.097 335.868 249.824 330.292 249.824C324.652 249.824 319.54 251.096 315.01 253.682C310.489 256.196 306.957 259.73 304.444 264.253C301.926 268.785 300.692 273.927 300.692 279.624C300.692 285.23 301.815 290.314 304.109 294.83L304.115 294.841L304.121 294.852C306.479 299.355 309.754 302.927 313.937 305.523L313.955 305.534L313.972 305.544C318.238 308.075 323.029 309.324 328.292 309.324C332.898 309.324 337.095 308.204 340.831 305.933C342.739 304.774 344.451 303.384 345.966 301.77C345.823 305.164 345.089 308.017 343.827 310.383L343.823 310.391L343.819 310.399C342.373 313.171 340.491 315.17 338.195 316.49L338.179 316.5L338.163 316.509C335.823 317.913 333.215 318.624 330.292 318.624C327.072 318.624 324.266 318.037 321.833 316.91L321.815 316.901L321.796 316.893C319.367 315.826 317.371 314.269 315.778 312.206C314.359 310.346 312.42 309.324 310.092 309.324C308.708 309.324 307.405 309.774 306.211 310.542L306.17 310.568L306.13 310.597C304.34 311.875 303.192 313.628 303.192 315.824C303.192 317.315 303.786 318.671 304.72 319.86ZM338.382 294.198L338.372 294.204L338.363 294.209C336.036 295.606 333.365 296.324 330.292 296.324C327.224 296.324 324.514 295.607 322.112 294.204C319.765 292.793 317.916 290.862 316.551 288.372C315.192 285.828 314.492 282.927 314.492 279.624C314.492 276.317 315.194 273.414 316.556 270.868C317.925 268.308 319.774 266.35 322.112 264.945C324.514 263.541 327.224 262.824 330.292 262.824C333.365 262.824 336.036 263.543 338.363 264.939L338.372 264.945L338.382 264.95C340.78 266.354 342.616 268.302 343.912 270.835L343.92 270.851L343.929 270.868C345.291 273.414 345.992 276.317 345.992 279.624C345.992 282.931 345.291 285.835 343.929 288.381L343.925 288.389L343.921 288.396C342.628 290.863 340.792 292.787 338.382 294.198Z" fill="#FA6500"/>
<path fill-rule="evenodd" clip-rule="evenodd" d="M422.129 283.394L422.159 283.367L422.187 283.338C423.442 282.083 424.073 280.501 424.073 278.724C424.073 273.201 423.023 268.224 420.867 263.842C418.706 259.446 415.583 255.987 411.511 253.515C407.413 251.027 402.607 249.824 397.173 249.824C391.655 249.824 386.638 251.101 382.175 253.691C377.777 256.215 374.321 259.788 371.818 264.365L371.813 264.374C369.371 268.899 368.173 273.999 368.173 279.624C368.173 285.269 369.446 290.384 372.036 294.917L372.042 294.927L372.048 294.937C374.699 299.451 378.363 303.003 383.004 305.574L383.014 305.58L383.024 305.585C387.68 308.092 392.912 309.324 398.673 309.324C401.987 309.324 405.403 308.712 408.912 307.519C412.47 306.333 415.514 304.773 417.996 302.807C419.488 301.678 420.373 300.12 420.373 298.224C420.373 296.241 419.406 294.593 417.884 293.314C416.694 292.25 415.179 291.824 413.573 291.824C411.896 291.824 410.358 292.319 409.05 293.341C407.872 294.237 406.288 295.044 404.24 295.727L404.231 295.73L404.223 295.733C402.272 296.403 400.425 296.724 398.673 296.724C394.013 296.724 390.174 295.417 387.039 292.876C384.558 290.822 382.864 288.258 381.958 285.124H417.473C419.238 285.124 420.844 284.58 422.129 283.394ZM382.101 273.124C382.996 270.164 384.503 267.787 386.592 265.927C389.225 263.641 392.692 262.424 397.173 262.424C401.137 262.424 404.173 263.609 406.476 265.856C408.38 267.713 409.727 270.109 410.466 273.124H382.101Z" fill="#FA6500"/>
<path fill-rule="evenodd" clip-rule="evenodd" d="M434.968 307.138L434.996 307.167L435.025 307.194C436.376 308.441 438.161 308.924 440.082 308.924C442.057 308.924 443.912 308.411 445.224 307.01C446.55 305.667 447.082 303.872 447.082 301.924V272.724C447.082 269.607 448.263 267.238 450.682 265.424C453.176 263.554 456.581 262.524 461.082 262.524C462.58 262.524 464.612 262.736 467.215 263.19C467.897 263.326 468.548 263.424 469.082 263.424C470.471 263.424 471.79 263.059 472.881 262.186C473.95 261.331 474.616 260.136 474.997 258.801C475.158 258.283 475.182 257.692 475.182 257.224C475.182 254.593 473.468 252.71 471.123 251.46C468.716 250.176 465.577 249.624 461.882 249.624C458.273 249.624 454.857 250.348 451.654 251.803C449.876 252.612 448.247 253.594 446.772 254.75C446.491 253.737 446.004 252.818 445.246 252.06C443.906 250.719 442.057 250.224 440.082 250.224C438.12 250.224 436.314 250.764 434.968 252.11C433.622 253.456 433.082 255.262 433.082 257.224V301.924C433.082 303.926 433.607 305.778 434.968 307.138Z" fill="#FA6500"/>
<path fill-rule="evenodd" clip-rule="evenodd" d="M276.4 0H292C347.91 0 393.4 45.4896 393.4 101.4C393.4 103.469 392.578 105.453 391.115 106.915C389.653 108.378 387.669 109.2 385.6 109.2H353.922C353.321 104.531 349.332 100.924 344.5 100.924C339.668 100.924 335.679 104.531 335.078 109.2H244.5H241.922C241.321 104.531 237.332 100.924 232.5 100.924C227.668 100.924 223.679 104.531 223.078 109.2H182.8C180.731 109.2 178.747 108.378 177.285 106.915C175.822 105.453 175 103.469 175 101.4C175 45.4896 220.49 0 276.4 0ZM239.684 49.0844C241.147 47.6216 243.131 46.7998 245.2 46.7998C247.269 46.7998 249.253 47.6216 250.715 49.0844C252.178 50.5472 253 52.5311 253 54.5998V62.3998C253 64.4685 252.178 66.4525 250.715 67.9152C249.253 69.378 247.269 70.1998 245.2 70.1998C243.131 70.1998 241.147 69.378 239.684 67.9152C238.222 66.4525 237.4 64.4685 237.4 62.3998V54.5998C237.4 52.5311 238.222 50.5472 239.684 49.0844ZM278.684 49.0844C280.147 47.6216 282.131 46.7998 284.2 46.7998C286.269 46.7998 288.253 47.6216 289.715 49.0844C291.178 50.5472 292 52.5311 292 54.5998V62.3998C292 64.4685 291.178 66.4525 289.715 67.9152C288.253 69.378 286.269 70.1998 284.2 70.1998C282.131 70.1998 280.147 69.378 278.684 67.9152C277.222 66.4525 276.4 64.4685 276.4 62.3998V54.5998C276.4 52.5311 277.222 50.5472 278.684 49.0844ZM317.684 49.0844C319.147 47.6216 321.131 46.7998 323.2 46.7998C325.269 46.7998 327.253 47.6216 328.715 49.0844C330.178 50.5472 331 52.5311 331 54.5998V62.3998C331 64.4685 330.178 66.4525 328.715 67.9152C327.253 69.378 325.269 70.1998 323.2 70.1998C321.131 70.1998 319.147 69.378 317.684 67.9152C316.222 66.4525 315.4 64.4685 315.4 62.3998V54.5998C315.4 52.5311 316.222 50.5472 317.684 49.0844Z" fill="black"/>
</svg>
